# xmcd
#
# Track frame offsets:
#	150
#	13972
#	27208
#	39122
#	54533
#	70590
#	86817
#	97871
#	109745
#	129381
#	142794
#	156688
#	181729
#
# Disc length: 2819 seconds
#
# Revision: 0
# Processed by: cddbd v1.5.2PL0 Copyright (c) Steve Scherf et al.
# Submitted via: EZCDAudioConverter 2.0.5.1
#
DISCID=a00b010d
DTITLE=Maxime Le Forestier - Restons amants
DYEAR=2008
DGENRE=Chanson francaise
TTITLE0=Maxime Le Forestier - L'ere etrange
TTITLE1=Maxime Le Forestier - Grain d'sel
TTITLE2=Maxime Le Forestier - Restons amants
TTITLE3=Maxime Le Forestier - Tuer l'temps
TTITLE4=Maxime Le Forestier - Histoire grise
TTITLE5=Maxime Le Forestier - La-bas la terre
TTITLE6=Maxime Le Forestier - Le juge et la blonde
TTITLE7=Maxime Le Forestier - Sur deux tons
TTITLE8=Maxime Le Forestier - La meute et le troupeau
TTITLE9=Maxime Le Forestier - Tell'ment je m'aime
TTITLE10=Maxime Le Forestier - Empreintes
TTITLE11=Maxime Le Forestier - Hymne a la soie (avec Emmanuelle Beart)
TTITLE12=Maxime le forestier - [cd-rom track]
EXTD=
EXTT0=
EXTT1=
EXTT2=
EXTT3=
EXTT4=
EXTT5=
EXTT6=
EXTT7=
EXTT8=
EXTT9=
EXTT10=
EXTT11=
EXTT12=
PLAYORDER=
